<?xml version="1.0" encoding="UTF-8" standalone="no"?>
<!-- Created with Inkscape (http://www.inkscape.org/) -->

<svg
   xmlns:dc="http://purl.org/dc/elements/1.1/"
   xmlns:cc="http://creativecommons.org/ns#"
   xmlns:rdf="http://www.w3.org/1999/02/22-rdf-syntax-ns#"
   xmlns:svg="http://www.w3.org/2000/svg"
   xmlns="http://www.w3.org/2000/svg"
   xmlns:sodipodi="http://sodipodi.sourceforge.net/DTD/sodipodi-0.dtd"
   xmlns:inkscape="http://www.inkscape.org/namespaces/inkscape"
   width="744.09448819"
   height="1052.3622047"
   id="svg4389"
   version="1.1"
   inkscape:version="0.48.4 r9939"
   sodipodi:docname="commet.svg"
   inkscape:export-filename="C:\dev\external\spaceguard\app\img\commet.png"
   inkscape:export-xdpi="12.55"
   inkscape:export-ydpi="12.55">
  <defs
     id="defs4391" />
  <sodipodi:namedview
     id="base"
     pagecolor="#ffffff"
     bordercolor="#666666"
     borderopacity="1.0"
     inkscape:pageopacity="0.0"
     inkscape:pageshadow="2"
     inkscape:zoom="1.979899"
     inkscape:cx="-8.5231301"
     inkscape:cy="887.98329"
     inkscape:document-units="px"
     inkscape:current-layer="layer1"
     showgrid="false"
     inkscape:window-width="1920"
     inkscape:window-height="1028"
     inkscape:window-x="-8"
     inkscape:window-y="-8"
     inkscape:window-maximized="1"
     showguides="true"
     inkscape:guide-bbox="true" />
  <metadata
     id="metadata4394">
    <rdf:RDF>
      <cc:Work
         rdf:about="">
        <dc:format>image/svg+xml</dc:format>
        <dc:type
           rdf:resource="http://purl.org/dc/dcmitype/StillImage" />
        <dc:title></dc:title>
      </cc:Work>
    </rdf:RDF>
  </metadata>
  <g
     inkscape:label="Layer 1"
     inkscape:groupmode="layer"
     id="layer1">
    <path
       sodipodi:type="arc"
       style="opacity:1;fill:#544330;fill-opacity:1;stroke:none"
       id="path4397"
       sodipodi:cx="135.35715"
       sodipodi:cy="117.00504"
       sodipodi:rx="53.214287"
       sodipodi:ry="53.214287"
       d="m 188.45639,120.50231 a 53.214287,53.214287 0 0 0 0.0185,-0.29388"
       sodipodi:start="0.065767886"
       sodipodi:end="0.060234293"
       sodipodi:open="true" />
    <path
       style="opacity:1;fill:#50402d;fill-opacity:1;stroke:none"
       d="M 117.375 66.90625 C 98.055403 73.851529 83.685394 91.706323 82.25 113.5 C 80.318512 142.8259 102.5491 168.16226 131.875 170.09375 C 146.83019 171.07874 160.72537 165.78182 171.03125 156.46875 C 164.34542 158.87707 157.07539 159.99688 149.53125 159.5 C 120.20535 157.56851 98.006012 132.23215 99.9375 102.90625 C 100.88434 88.530334 107.46589 75.855904 117.375 66.90625 z "
       id="path4907" />
    <g
       id="g4953"
       transform="matrix(0.73199768,0,0,0.71012229,30.041673,39.466063)">
      <path
         sodipodi:nodetypes="ccsccccc"
         inkscape:connector-curvature="0"
         id="path4912"
         d="m 106.02989,124.21382 c -3.87832,1.04967 0.78928,-1.46254 -2.43005,-0.12099 -6.856429,3.51845 -7.673653,15.81888 -0.064,20.56056 9.9889,6.22424 14.3807,6.06276 18.88999,4.24246 3.06702,-0.89154 4.31699,-12.91662 -2.09227,-19.19641 l -0.0719,-0.0638 c -4.2431,-3.67161 -9.56807,-5.56379 -14.23176,-5.42184 z"
         style="fill:#19170a;fill-opacity:1;stroke:none" />
      <path
         sodipodi:nodetypes="csssc"
         inkscape:connector-curvature="0"
         id="path4922"
         d="m 120.54948,125.05285 c 6.69833,4.55741 6.47454,18.72014 1.44498,20.5166 -4.36609,1.55949 -7.43082,1.21131 -14.12915,-3.34611 -6.69833,-4.55742 -5.28583,-10.85744 -5.1723,-16.46132 0.0807,-3.98612 11.21951,-5.22589 17.90944,-0.70972"
         style="fill:#362a1c;fill-opacity:0.58510623;stroke:none" />
      <path
         inkscape:connector-curvature="0"
         style="fill:#24221b;fill-opacity:1;stroke:none"
         d="m 107.17782,123.32979 c -1.21657,0.0417 -2.40128,0.28167 -3.46875,0.6875 -0.006,0.005 -0.025,-0.005 -0.0312,0 -0.1492,0.12175 -0.296,0.24225 -0.4375,0.375 -4.467388,4.19112 -3.308029,9.71346 2.59375,15.51546 4.78583,4.70491 11.23133,9.03894 15.875,7.29704 0.006,-0.005 0.025,0.005 0.0312,0 0.16187,-0.1306 0.31585,-0.26281 0.46875,-0.40625 4.46739,-4.19112 3.30803,-12.29175 -2.59375,-18.09375 l -0.0625,-0.0625 c -3.68952,-3.59757 -8.31976,-5.45159 -12.375,-5.3125 z"
         id="path4918"
         sodipodi:nodetypes="cccsscccccc" />
    </g>
    <g
       id="g5064"
       transform="matrix(1.2724852,0,0,1.2030362,-50.068898,-7.7116021)">
      <path
         transform="matrix(0.78536161,0.43847256,-0.5084269,1.0647525,73.890304,-72.223801)"
         sodipodi:open="true"
         sodipodi:end="6.3434196"
         sodipodi:start="0.065767886"
         d="m 163.19016,84.141562 c -0.40509,3.69034 -5.71951,6.484915 -11.87007,6.241859 -6.15057,-0.243056 -10.8082,-3.431704 -10.4031,-7.122044 0.40509,-3.69034 5.7195,-6.484916 11.87007,-6.241859 6.12652,0.242106 10.77659,3.40787 10.40699,7.085062"
         sodipodi:ry="6.6964288"
         sodipodi:rx="11.160714"
         sodipodi:cy="83.701469"
         sodipodi:cx="152.05357"
         id="path4965"
         style="fill:#342e28;fill-opacity:1;stroke:none"
         sodipodi:type="arc" />
      <path
         sodipodi:type="arc"
         style="fill:#231f1b;fill-opacity:1;stroke:none"
         id="path4967"
         sodipodi:cx="152.05357"
         sodipodi:cy="83.701469"
         sodipodi:rx="11.160714"
         sodipodi:ry="6.6964288"
         d="m 163.19016,84.141562 c -0.40509,3.69034 -5.71951,6.484915 -11.87007,6.241859 -6.15057,-0.243056 -10.8082,-3.431704 -10.4031,-7.122044 0.40509,-3.69034 5.7195,-6.484916 11.87007,-6.241859 6.12652,0.242106 10.77659,3.40787 10.40699,7.085062"
         sodipodi:start="0.065767886"
         sodipodi:end="6.3434196"
         sodipodi:open="true"
         transform="matrix(0.73627972,0.38839907,-0.47665231,0.94315796,78.021198,-53.549284)" />
      <path
         sodipodi:nodetypes="cascccscc"
         inkscape:connector-curvature="0"
         id="path4971"
         d="m 141.38115,78.237959 c -1.34073,0.675404 -5.68462,5.378584 -5.46407,8.833971 0.23444,3.672894 1.66016,6.178894 6.95473,8.575415 5.29456,2.396509 8.9814,1.042034 13.08149,-1.272992 l 0.20877,-0.215632 c 0.54625,-1.058437 0.5089,-0.659008 0.60526,-1.214297 -2.71587,1.36485 -6.50734,1.39866 -10.04913,-0.204492 -4.56107,-2.064512 -8.02797,-6.987279 -6.47351,-12.355397 z"
         style="fill:#413526;fill-opacity:0.42021275;stroke:none" />
    </g>
    <path
       transform="matrix(0.63245309,0,0,1.608673,46.861442,-39.416241)"
       style="fill:#4c3b2b;fill-opacity:1;stroke:none"
       d="m 141.9035,65.475445 c -0.38499,0.800236 -5.48189,1.647103 -11.28075,1.353523 -7.24275,-0.366681 -10.27158,-0.744152 -9.8866,-1.544388 0.38498,-0.800236 5.43555,-1.406228 11.28075,-1.353522 5.82234,0.0525 10.24154,0.738983 9.89029,1.536368"
       id="path4991"
       inkscape:connector-curvature="0"
       sodipodi:nodetypes="csssc" />
    <path
       transform="matrix(1.0699381,0,0,1.271729,-4.9700236,-18.602179)"
       style="fill:#544330;fill-opacity:1;stroke:none"
       d="m 142.73799,66.002006 c -0.38499,0.800236 -6.14487,0.247794 -12.05265,0.616338 -5.82954,0.363662 -10.10468,-0.586184 -9.94919,-1.333764 0.17688,-0.850377 5.43555,-1.406228 11.28075,-1.353522 5.82234,0.0525 9.61567,1.40596 9.89029,1.624128"
       id="path4993"
       inkscape:connector-curvature="0"
       sodipodi:nodetypes="csssc" />
    <path
       transform="matrix(0.9866076,0,0,0.68479434,5.846648,19.329676)"
       style="fill:#312b26;fill-opacity:1;stroke:none"
       d="m 141.39445,66.078468 c -0.38499,0.800236 -5.06225,0.705418 -10.88482,1.011267 -5.84144,0.306839 -9.86434,-0.483386 -9.47936,-1.283622 0.38498,-0.800236 4.62107,-1.927761 10.46627,-1.875055 5.82234,0.0525 7.56055,1.586474 9.87898,2.286072"
       id="path4989"
       inkscape:connector-curvature="0"
       sodipodi:nodetypes="csssc" />
    <path
       style="fill:#2d2622;fill-opacity:1;stroke:none"
       d="m 182.51681,134.14216 c -2.67581,6.51143 -11.59441,11.42615 -12.585,6.84039 -0.43565,-2.01677 2.46486,-3.62103 5.14066,-10.13247 2.6758,-6.51144 0.69328,-8.89003 2.71892,-10.90291 7.99084,-7.94047 8.56151,3.3045 5.91285,9.79934"
       id="path5003"
       inkscape:connector-curvature="0"
       sodipodi:nodetypes="csssc" />
    <path
       sodipodi:nodetypes="csssc"
       inkscape:connector-curvature="0"
       id="path5001"
       d="m 181.7724,131.50487 c -0.22362,7.03624 -3.15717,12.36457 -6.55229,11.90114 -3.39511,-0.46343 -1.7973,-5.33869 -1.57369,-12.37493 0.22362,-7.03625 -1.01165,-13.56901 2.38347,-13.10558 3.38183,0.46162 5.94867,6.49767 5.74465,13.50885"
       style="fill:#221d1a;fill-opacity:1;stroke:none"
       transform="matrix(0.9365537,0.35052413,-0.35052413,0.9365537,56.944252,-53.270538)" />
    <path
       style="fill:#221d1a;fill-opacity:0.29255319;stroke:none"
       d="m 168.86946,138.9499 c -2.08975,10.84167 13.0908,-1.33234 3.99401,7.16767 -5.8973,5.51041 -7.54143,2.89838 -6.35377,-4.69152 1.03873,-6.63811 5.87946,-15.05755 7.65146,-17.78222 0.29416,-0.45231 2.17612,-3.01682 -1.0726,5.7142"
       id="path5005"
       inkscape:connector-curvature="0"
       sodipodi:nodetypes="csssc" />
    <path
       style="fill:#221d1a;fill-opacity:0.23936169;stroke:none"
       d="m 107.09375,87.4375 c 0.15977,0.7955 -1.26684,1.980511 -3.1875,2.65625 -1.92066,0.675739 -3.68493,0.655668 -3.8447,-0.139832 -0.0258,-0.128724 -0.0493,-0.339518 0.003,-0.485168 -0.19629,0.277972 -0.223015,0.20429 -0.592977,0.698386 -0.283236,0.378271 -1.622453,2.401848 4.434367,0.301614 2.01509,-0.698742 3.41677,-2.499459 3.34375,-2.75 -0.024,-0.109268 -0.078,-0.198097 -0.15625,-0.28125 z"
       id="path5012"
       inkscape:connector-curvature="0"
       sodipodi:nodetypes="csccssccc" />
    <path
       transform="matrix(0.93441249,-0.35619277,0.35619277,0.93441249,-26.111599,34.749867)"
       style="fill:#4e443c;fill-opacity:1;stroke:none"
       d="m 105.61609,95.716885 c -0.13406,0.800235 -1.89274,1.406232 -3.92812,1.353522 -2.03538,-0.05271 -3.50333,0.09116 -3.129898,-0.923514 0.28024,-0.761455 1.280585,-1.389452 3.315968,-1.336747 2.02742,0.0525 4.06916,0.632788 3.94684,1.430172"
       id="path5009"
       inkscape:connector-curvature="0"
       sodipodi:nodetypes="csssc" />
    <path
       transform="matrix(0.93441249,-0.35619277,0.35619277,0.93441249,-25.606523,35.381212)"
       style="fill:#221d1a;fill-opacity:1;stroke:none"
       d="m 105.61609,95.716885 c -0.13406,0.800235 -1.89274,1.406228 -3.92812,1.353522 -2.03538,-0.05271 -3.576709,-0.744151 -3.442653,-1.544387 0.134056,-0.800236 1.789063,-1.043377 3.824753,-1.082377 1.97827,-0.0379 3.66962,0.467838 3.5473,1.265222"
       id="path5007"
       inkscape:connector-curvature="0"
       sodipodi:nodetypes="csssc" />
    <path
       transform="matrix(0.65704768,0.32281772,-0.49321351,0.92505642,77.418538,-20.693696)"
       style="fill:#50402d;fill-opacity:1;stroke:none"
       d="m 92.399346,108.66089 c 2.228147,7.13304 -3.990636,-1.05755 -5.904243,-1.41618 -1.913607,-0.35863 -3.717989,-5.28074 -3.591953,-10.725821 0.126035,-5.445082 2.016549,-10.519867 3.930156,-10.161238 1.906124,0.357227 5.349401,4.859001 5.234408,10.284683"
       id="path5020"
       inkscape:connector-curvature="0"
       sodipodi:nodetypes="csssc" />
    <path
       transform="matrix(0.60695088,0.31064699,-0.45560829,0.89018037,79.196121,-16.285257)"
       style="fill:#221d1a;fill-opacity:1;stroke:none"
       d="m 88.227876,97.792599 c -0.126035,5.445081 -0.174435,9.593471 -2.088042,9.234841 -1.913607,-0.35863 -3.36272,-5.06347 -3.236684,-10.508551 0.126035,-5.445082 1.779493,-9.568468 3.6931,-9.209839 1.906124,0.357227 1.772314,5.07837 1.657321,10.504052"
       id="path5018"
       inkscape:connector-curvature="0"
       sodipodi:nodetypes="csssc" />
    <path
       style="fill:#50402d;fill-opacity:1;stroke:none"
       d="m 139.22693,170.98912 c -0.34512,1.16813 -5.06433,-0.78273 -10.30429,-0.85983 -5.23996,-0.0769 -9.87441,-0.12955 -10.04285,-1.37125 -1.53921,-11.3467 -6.81892,1.10453 9.62489,-1.37852 13.45982,-2.03246 15.44892,-3.71496 10.72662,3.60972"
       id="path5024"
       inkscape:connector-curvature="0"
       sodipodi:nodetypes="csssc" />
    <g
       id="g5037"
       transform="matrix(0.69044472,0.72338516,-0.72338516,0.69044472,168.8201,-58.043191)">
      <path
         style="fill:#3d3222;fill-opacity:1;stroke:none"
         d="m 127.07187,95.31463 c -0.0364,2.00103 4.18977,6.19323 -1.15832,5.61379 -4.39038,-0.47566 -12.64135,-4.25395 -12.60492,-6.25499 0.0364,-2.00104 2.03864,-3.00877 5.01486,-1.64211 2.71096,1.24489 6.76859,0.99813 7.73434,1.76764"
         id="path5030"
         inkscape:connector-curvature="0"
         sodipodi:nodetypes="csssc" />
      <path
         sodipodi:nodetypes="csssc"
         inkscape:connector-curvature="0"
         id="path5027"
         d="m 126.43657,95.94991 c -0.0364,2.00103 5.178,5.38147 -0.41715,5.26086 -4.41504,-0.0952 -12.8178,-4.28924 -12.78137,-6.29028 0.0364,-2.00104 4.26217,-1.84406 7.23839,-0.47741 2.71095,1.2449 5.00386,0.78637 5.96962,1.55588"
         style="fill:#29231b;fill-opacity:1;stroke:none" />
      <path
         style="fill:#2f261a;fill-opacity:0.37234042;stroke:none"
         d="m 126.2248,102.09109 c -0.3893,0.94221 -4.71421,-0.009 -5.07595,0.10784 -4.6255,1.49797 -13.84581,-1.29358 -9.04021,-8.12557 1.15143,-1.63698 -0.86433,0.76606 1.1678,3.33435 1.93449,2.4449 3.5921,3.39814 12.46373,4.59118"
         id="path5032"
         inkscape:connector-curvature="0"
         sodipodi:nodetypes="csssc" />
    </g>
    <path
       style="fill:#544330;fill-opacity:1;stroke:none"
       d="m 175.47679,82.451184 c -2.35604,2.797297 -7.09437,-0.716776 -11.24418,-3.883878 -4.1498,-3.167096 -10.24678,-6.752189 -7.89073,-9.54948 2.35605,-2.797292 6.80684,1.372281 10.95664,4.539376 4.13358,3.154712 9.98998,2.669246 7.66605,5.473012"
       id="path5034"
       inkscape:connector-curvature="0"
       sodipodi:nodetypes="csssc" />
    <g
       id="g5048"
       transform="matrix(2.5566386,-2.1868455,-0.17383457,-3.2661205,-143.63581,767.08385)">
      <path
         style="fill:#221d1a;fill-opacity:0.23936169;stroke:none"
         d="m 126.02232,102.08036 c 0.15977,0.7955 -1.26684,1.98051 -3.1875,2.65625 -1.92066,0.67574 -3.68493,0.65567 -3.8447,-0.13983 -0.0258,-0.12873 -0.0493,-0.33952 0.003,-0.48517 -0.19629,0.27797 -0.22301,0.20429 -0.59298,0.69838 -0.28323,0.37827 -1.62245,2.40185 4.43437,0.30162 2.01509,-0.69874 3.41677,-2.49946 3.34375,-2.75 -0.024,-0.10927 -0.078,-0.1981 -0.15625,-0.28125 z"
         id="path5042"
         inkscape:connector-curvature="0"
         sodipodi:nodetypes="csccssccc" />
      <path
         style="fill:#4e443c;fill-opacity:1;stroke:none"
         d="m 125.59963,101.21209 c 0.15977,0.7955 -1.26771,1.98818 -3.18837,2.66392 -1.92066,0.67573 -3.24109,1.33304 -3.25357,0.2519 -0.009,-0.81133 0.70169,-1.75446 2.62235,-2.4302 1.91314,-0.67309 4.02766,-0.85812 4.19739,-0.0695"
         id="path5044"
         inkscape:connector-curvature="0"
         sodipodi:nodetypes="csssc" />
      <path
         style="fill:#221d1a;fill-opacity:1;stroke:none"
         d="m 126.1047,101.84343 c 0.15978,0.79551 -1.26771,1.98818 -3.18837,2.66392 -1.92065,0.67573 -3.60718,0.57865 -3.76695,-0.21685 -0.15978,-0.7955 1.30008,-1.61219 3.18836,-2.37373 1.83502,-0.74006 3.59558,-0.86994 3.7653,-0.0813"
         id="path5046"
         inkscape:connector-curvature="0"
         sodipodi:nodetypes="csssc" />
    </g>
    <g
       id="g5059"
       transform="matrix(-0.04865212,-0.53129876,0.3906058,0.04176802,64.526665,203.08718)">
      <path
         sodipodi:type="arc"
         style="fill:#342e28;fill-opacity:1;stroke:none"
         id="path5053"
         sodipodi:cx="152.05357"
         sodipodi:cy="83.701469"
         sodipodi:rx="11.160714"
         sodipodi:ry="6.6964288"
         d="m 163.19016,84.141562 c -0.40509,3.69034 -5.71951,6.484915 -11.87007,6.241859 -6.15057,-0.243056 -10.8082,-3.431704 -10.4031,-7.122044 0.40509,-3.69034 5.7195,-6.484916 11.87007,-6.241859 6.12652,0.242106 10.77659,3.40787 10.40699,7.085062"
         sodipodi:start="0.065767886"
         sodipodi:end="6.3434196"
         sodipodi:open="true"
         transform="matrix(0.78536161,0.43847256,-0.5084269,1.0647525,73.890304,-72.223801)" />
      <path
         transform="matrix(0.73627972,0.38839907,-0.47665231,0.94315796,78.021198,-53.549284)"
         sodipodi:open="true"
         sodipodi:end="6.3434196"
         sodipodi:start="0.065767886"
         d="m 163.19016,84.141562 c -0.40509,3.69034 -5.71951,6.484915 -11.87007,6.241859 -6.15057,-0.243056 -10.8082,-3.431704 -10.4031,-7.122044 0.40509,-3.69034 5.7195,-6.484916 11.87007,-6.241859 6.12652,0.242106 10.77659,3.40787 10.40699,7.085062"
         sodipodi:ry="6.6964288"
         sodipodi:rx="11.160714"
         sodipodi:cy="83.701469"
         sodipodi:cx="152.05357"
         id="path5055"
         style="fill:#231f1b;fill-opacity:1;stroke:none"
         sodipodi:type="arc" />
      <path
         style="fill:#413526;fill-opacity:0.42021275;stroke:none"
         d="m 141.38115,78.237959 c -1.34073,0.675404 -5.68462,5.378584 -5.46407,8.833971 0.23444,3.672894 1.66016,6.178894 6.95473,8.575415 5.29456,2.396509 8.9814,1.042034 13.08149,-1.272992 l 0.20877,-0.215632 c 0.54625,-1.058437 0.5089,-0.659008 0.60526,-1.214297 -2.71587,1.36485 -6.50734,1.39866 -10.04913,-0.204492 -4.56107,-2.064512 -8.02797,-6.987279 -6.47351,-12.355397 z"
         id="path5057"
         inkscape:connector-curvature="0"
         sodipodi:nodetypes="cascccscc" />
    </g>
  </g>
</svg>
