<?xml version="1.0" encoding="UTF-8" standalone="no"?>
<!-- Created with Inkscape (http://www.inkscape.org/) -->

<svg
   xmlns:dc="http://purl.org/dc/elements/1.1/"
   xmlns:cc="http://creativecommons.org/ns#"
   xmlns:rdf="http://www.w3.org/1999/02/22-rdf-syntax-ns#"
   xmlns:svg="http://www.w3.org/2000/svg"
   xmlns="http://www.w3.org/2000/svg"
   xmlns:sodipodi="http://sodipodi.sourceforge.net/DTD/sodipodi-0.dtd"
   xmlns:inkscape="http://www.inkscape.org/namespaces/inkscape"
   width="744.09448819"
   height="1052.3622047"
   id="svg2"
   version="1.1"
   inkscape:version="0.48.4 r9939"
   sodipodi:docname="gshield.svg"
   inkscape:export-filename="C:\dev\external\spaceguard\app\img\gshield.png"
   inkscape:export-xdpi="5.9200001"
   inkscape:export-ydpi="5.9200001">
  <defs
     id="defs4" />
  <sodipodi:namedview
     id="base"
     pagecolor="#ffffff"
     bordercolor="#666666"
     borderopacity="1.0"
     inkscape:pageopacity="0.0"
     inkscape:pageshadow="2"
     inkscape:zoom="1"
     inkscape:cx="-292.57144"
     inkscape:cy="793.52134"
     inkscape:document-units="px"
     inkscape:current-layer="layer1"
     showgrid="false"
     inkscape:window-width="1920"
     inkscape:window-height="1028"
     inkscape:window-x="-8"
     inkscape:window-y="-8"
     inkscape:window-maximized="1" />
  <metadata
     id="metadata7">
    <rdf:RDF>
      <cc:Work
         rdf:about="">
        <dc:format>image/svg+xml</dc:format>
        <dc:type
           rdf:resource="http://purl.org/dc/dcmitype/StillImage" />
        <dc:title />
      </cc:Work>
    </rdf:RDF>
  </metadata>
  <g
     inkscape:label="Layer 1"
     inkscape:groupmode="layer"
     id="layer1">
    <g
       id="g3758"
       style="opacity:0.6283187"
       transform="translate(-22,-0.999998)">
      <path
         sodipodi:nodetypes="ccccccscccccc"
         style="fill:#00364f;fill-opacity:1;stroke:none"
         d="m 87.06801,23.186896 0,197.978264 -0.03558,0 c 0.02634,1.2e-4 0.03193,0.0915 0.03558,0.27121 0.0034,0.17982 0.0091,0.42691 0,0.77485 l 0,0.0776 c -0.302874,10.66954 -4.283443,93.83628 114.02538,93.83628 126.41202,0 113.21684,-94.95634 114.06101,-94.95983 l -0.10686,0 0,-197.978269 L 201.0578,25.341408 87.068057,23.186961 z"
         id="path3812"
         inkscape:connector-curvature="0" />
      <path
         sodipodi:nodetypes="ccccccscccccc"
         inkscape:connector-curvature="0"
         id="rect2988"
         d="m 101.09375,36.34375 0,159.6875 -0.0312,0 c 0.0231,9e-5 0.028,0.0737 0.0312,0.21875 0.003,0.14505 0.008,0.34434 0,0.625 l 0,0.0625 c -0.26562,8.60595 -3.756569,75.6875 100,75.6875 110.86306,0 99.29092,-76.59093 100.03125,-76.59375 l -0.0937,0 0,-159.6875 -99.96875,10 -99.96875,-10 z"
         style="fill:#007190;fill-opacity:1;stroke:none" />
      <path
         sodipodi:nodetypes="ccscccc"
         inkscape:connector-curvature="0"
         id="path3805"
         d="m 201.43369,46.21323 c 1.53668,131.28204 -12.89088,186.30654 -39.75635,222.3744 5.95309,1.37167 18.00749,3.34756 28.48556,3.7722 122.13732,4.94975 110.13578,-76.32576 110.9573,-76.32858 l -0.10403,0 0,-159.6875 z"
         style="fill:#ffffff;fill-opacity:0.11170211;stroke:none" />
      <g
         inkscape:export-ydpi="14"
         inkscape:export-xdpi="14"
         inkscape:export-filename="C:\dev\external\spaceguard\app\img\g4384.png"
         transform="matrix(1,0,0,1.5175738,3.036905e-6,-60.838808)"
         id="g4384">
        <path
           transform="matrix(1.0982179,0,0,1.1563913,98.413164,24.483173)"
           sodipodi:open="true"
           sodipodi:end="6.3434196"
           sodipodi:start="0.065767886"
           d="m 153.8692,107.86311 c -2.19593,18.87486 -31.0043,33.16818 -64.345289,31.92503 C 56.18292,138.54498 30.934863,122.23611 33.130797,103.36126 35.32673,84.486398 64.135099,70.193076 97.476089,71.436229 130.6867,72.67452 155.89382,88.866349 153.89028,107.67396"
           sodipodi:ry="34.25"
           sodipodi:rx="60.5"
           sodipodi:cy="105.61218"
           sodipodi:cx="93.5"
           id="path3819"
           style="fill:#003544;fill-opacity:0.45744683;stroke:none"
           sodipodi:type="arc" />
        <path
           sodipodi:type="arc"
           style="fill:#00364f;fill-opacity:1;stroke:none"
           id="path3814"
           sodipodi:cx="93.5"
           sodipodi:cy="105.61218"
           sodipodi:rx="60.5"
           sodipodi:ry="34.25"
           d="m 153.8692,107.86311 c -2.19593,18.87486 -31.0043,33.16818 -64.345289,31.92503 C 56.18292,138.54498 30.934863,122.23611 33.130797,103.36126 35.32673,84.486398 64.135099,70.193076 97.476089,71.436229 130.6867,72.67452 155.89382,88.866349 153.89028,107.67396"
           sodipodi:start="0.065767886"
           sodipodi:end="6.3434196"
           sodipodi:open="true"
           transform="translate(107.59652,41)" />
        <path
           style="fill:#ffffff;fill-opacity:0.07978725;stroke:none"
           d="m 255.6923,143.61194 c -4.23883,6.83364 -7.00901,-1.10555 -12.9851,-7.204 -24.48501,-24.98634 -58.95078,-4.25265 -53.80612,-16.07124 2.62204,-6.0235 13.89973,-5.48269 20.36898,-5.01351 26.2443,1.90335 48.02542,14.36577 46.43893,28.15012"
           id="path3816"
           inkscape:connector-curvature="0"
           sodipodi:nodetypes="csssc" />
      </g>
    </g>
    <path
       sodipodi:nodetypes="ccccccscccccc"
       style="fill:#21edff;fill-opacity:0.75;stroke:none"
       d="m 65.06801,22.1869 0,197.97826 -0.03558,0 c 0.02634,1.2e-4 0.03193,0.0915 0.03558,0.27121 0.0034,0.17982 0.0091,0.42691 0,0.77485 l 0,0.0776 c -0.302874,10.66954 -4.283443,93.83628 114.02538,93.83628 126.41202,0 113.21684,-94.95634 114.06101,-94.95983 l -0.10686,0 0,-197.97827 L 179.0578,24.34141 65.068057,22.18696 z"
       id="path2989"
       inkscape:connector-curvature="0" />
  </g>
</svg>
