<?xml version="1.0" encoding="UTF-8" standalone="no"?>
<!-- Created with Inkscape (http://www.inkscape.org/) -->

<svg
   xmlns:dc="http://purl.org/dc/elements/1.1/"
   xmlns:cc="http://creativecommons.org/ns#"
   xmlns:rdf="http://www.w3.org/1999/02/22-rdf-syntax-ns#"
   xmlns:svg="http://www.w3.org/2000/svg"
   xmlns="http://www.w3.org/2000/svg"
   xmlns:sodipodi="http://sodipodi.sourceforge.net/DTD/sodipodi-0.dtd"
   xmlns:inkscape="http://www.inkscape.org/namespaces/inkscape"
   width="744.09448819"
   height="1052.3622047"
   id="svg2988"
   version="1.1"
   inkscape:version="0.48.4 r9939"
   sodipodi:docname="sshield.svg"
   inkscape:export-filename="C:\dev\external\spaceguard\app\img\sshield.png"
   inkscape:export-xdpi="4.4699998"
   inkscape:export-ydpi="4.4699998">
  <defs
     id="defs2990">
    <inkscape:perspective
       sodipodi:type="inkscape:persp3d"
       inkscape:vp_x="0 : 526.18109 : 1"
       inkscape:vp_y="0 : 1000 : 0"
       inkscape:vp_z="744.09448 : 526.18109 : 1"
       inkscape:persp3d-origin="372.04724 : 350.78739 : 1"
       id="perspective2996" />
  </defs>
  <sodipodi:namedview
     id="base"
     pagecolor="#ffffff"
     bordercolor="#666666"
     borderopacity="1.0"
     inkscape:pageopacity="0.0"
     inkscape:pageshadow="2"
     inkscape:zoom="0.97299472"
     inkscape:cx="-282.87822"
     inkscape:cy="707.34486"
     inkscape:document-units="px"
     inkscape:current-layer="layer1"
     showgrid="false"
     inkscape:window-width="1920"
     inkscape:window-height="1028"
     inkscape:window-x="-8"
     inkscape:window-y="-8"
     inkscape:window-maximized="1" />
  <metadata
     id="metadata2993">
    <rdf:RDF>
      <cc:Work
         rdf:about="">
        <dc:format>image/svg+xml</dc:format>
        <dc:type
           rdf:resource="http://purl.org/dc/dcmitype/StillImage" />
        <dc:title></dc:title>
      </cc:Work>
    </rdf:RDF>
  </metadata>
  <g
     inkscape:label="Layer 1"
     inkscape:groupmode="layer"
     id="layer1">
    <g
       id="g3875"
       style="stroke:none;stroke-opacity:1;fill:#21edff;fill-opacity:0.60119933">
      <g
         style="fill:#21edff;fill-opacity:0.60119933;stroke:none;stroke-opacity:1"
         transform="matrix(1.9087998,0,0,1,-90.128998,-196.69509)"
         id="g3823">
        <path
           sodipodi:nodetypes="aaaaa"
           inkscape:connector-curvature="0"
           id="rect3811"
           d="m 63.57143,341.05179 c 35.650879,-35.65088 115.60299,-35.65088 151.25387,0 4.71404,4.71405 4.71404,15.28595 0,20 -35.65088,35.65088 -115.602991,35.65088 -151.25387,0 -4.714045,-4.71405 -4.714045,-15.28595 0,-20 z"
           style="opacity:0.84999999999999998;fill:#21edff;fill-opacity:0.60119933;stroke:none;stroke-opacity:1" />
        <path
           sodipodi:nodetypes="aaaaa"
           inkscape:connector-curvature="0"
           id="rect3817"
           d="m 63.57143,357.93362 c 35.650879,-35.65088 115.60299,-35.65088 151.25387,0 4.71404,4.71405 4.71404,15.28595 0,20 -35.65088,35.65088 -115.602991,35.65088 -151.25387,0 -4.714045,-4.71405 -4.714045,-15.28595 0,-20 z"
           style="opacity:0.84999999999999998;fill:#21edff;fill-opacity:0.60119933;stroke:none;stroke-opacity:1" />
        <path
           sodipodi:nodetypes="aaaaa"
           inkscape:connector-curvature="0"
           id="rect3819"
           d="m 63.57143,374.26352 c 35.650879,-35.65088 115.60299,-35.65088 151.25387,0 4.71404,4.71405 4.71404,15.28595 0,20 -35.65088,35.65088 -115.602991,35.65088 -151.25387,0 -4.714045,-4.71405 -4.714045,-15.28595 0,-20 z"
           style="opacity:0.84999999999999998;fill:#21edff;fill-opacity:0.60119933;stroke:none;stroke-opacity:1" />
        <path
           sodipodi:nodetypes="aaaaa"
           inkscape:connector-curvature="0"
           id="rect3821"
           d="m 63.57143,390.50165 c 35.650879,-35.65088 115.60299,-35.65088 151.25387,0 4.71404,4.71405 4.71404,15.28595 0,20 -35.65088,35.65088 -115.602991,35.65088 -151.25387,0 -4.714045,-4.71405 -4.714045,-15.28595 0,-20 z"
           style="opacity:0.84999999999999998;fill:#21edff;fill-opacity:0.60119933;stroke:none;stroke-opacity:1" />
      </g>
      <g
         id="g3801"
         style="stroke:none;stroke-opacity:1;fill:#21edff;fill-opacity:0.60119933">
        <path
           sodipodi:type="arc"
           style="opacity:0.84999999999999998;fill:#21edff;fill-opacity:0.60119933;stroke:none;stroke-opacity:1"
           id="path3012"
           sodipodi:cx="172.73608"
           sodipodi:cy="177.57008"
           sodipodi:rx="114.14724"
           sodipodi:ry="114.14724"
           d="m 286.63655,185.0719 a 114.14724,114.14724 0 1 1 0.0398,-0.63039"
           sodipodi:start="0.065767886"
           sodipodi:end="6.3434196"
           sodipodi:open="true" />
        <path
           sodipodi:open="true"
           sodipodi:end="6.3434196"
           sodipodi:start="0.065767886"
           d="m 286.63655,185.0719 a 114.14724,114.14724 0 1 1 0.0398,-0.63039"
           sodipodi:ry="114.14724"
           sodipodi:rx="114.14724"
           sodipodi:cy="177.57008"
           sodipodi:cx="172.73608"
           id="path3014"
           style="opacity:0.84999999999999998;fill:#21edff;fill-opacity:0.60119933;stroke:none;stroke-opacity:1"
           sodipodi:type="arc"
           transform="translate(19.285714,-18.571429)" />
        <path
           sodipodi:type="arc"
           style="opacity:0.84999999999999998;fill:#21edff;fill-opacity:0.60119933;stroke:none;stroke-opacity:1"
           id="path3788"
           sodipodi:cx="172.73608"
           sodipodi:cy="177.57008"
           sodipodi:rx="114.14724"
           sodipodi:ry="114.14724"
           d="m 286.63655,185.0719 a 114.14724,114.14724 0 1 1 0.0398,-0.63039"
           sodipodi:start="0.065767886"
           sodipodi:end="6.3434196"
           sodipodi:open="true"
           transform="translate(19.285714,-18.571429)" />
        <path
           sodipodi:open="true"
           sodipodi:end="6.3434196"
           sodipodi:start="0.065767886"
           d="m 286.63655,185.0719 a 114.14724,114.14724 0 1 1 0.0398,-0.63039"
           sodipodi:ry="114.14724"
           sodipodi:rx="114.14724"
           sodipodi:cy="177.57008"
           sodipodi:cx="172.73608"
           id="path3790"
           style="opacity:0.84999999999999998;fill:#21edff;fill-opacity:0.60119933;stroke:none;stroke-opacity:1"
           sodipodi:type="arc" />
        <path
           transform="translate(19.285714,-18.571429)"
           sodipodi:open="true"
           sodipodi:end="6.3434196"
           sodipodi:start="0.065767886"
           d="m 286.63655,185.0719 a 114.14724,114.14724 0 1 1 0.0398,-0.63039"
           sodipodi:ry="114.14724"
           sodipodi:rx="114.14724"
           sodipodi:cy="177.57008"
           sodipodi:cx="172.73608"
           id="path3793"
           style="opacity:0.84999999999999998;fill:#21edff;fill-opacity:0.60119933;stroke:none;stroke-opacity:1"
           sodipodi:type="arc" />
        <path
           sodipodi:type="arc"
           style="opacity:0.84999999999999998;fill:#21edff;fill-opacity:0.60119933;stroke:none;stroke-opacity:1"
           id="path3795"
           sodipodi:cx="172.73608"
           sodipodi:cy="177.57008"
           sodipodi:rx="114.14724"
           sodipodi:ry="114.14724"
           d="m 286.63655,185.0719 a 114.14724,114.14724 0 1 1 0.0398,-0.63039"
           sodipodi:start="0.065767886"
           sodipodi:end="6.3434196"
           sodipodi:open="true"
           transform="translate(-16.714286,-18.571429)" />
        <path
           transform="translate(-14.714286,15.428571)"
           sodipodi:open="true"
           sodipodi:end="6.3434196"
           sodipodi:start="0.065767886"
           d="m 286.63655,185.0719 a 114.14724,114.14724 0 1 1 0.0398,-0.63039"
           sodipodi:ry="114.14724"
           sodipodi:rx="114.14724"
           sodipodi:cy="177.57008"
           sodipodi:cx="172.73608"
           id="path3797"
           style="opacity:0.84999999999999998;fill:#21edff;fill-opacity:0.60119933;stroke:none;stroke-opacity:1"
           sodipodi:type="arc" />
        <path
           sodipodi:type="arc"
           style="opacity:0.84999999999999998;fill:#21edff;fill-opacity:0.60119933;stroke:none;stroke-opacity:1"
           id="path3799"
           sodipodi:cx="172.73608"
           sodipodi:cy="177.57008"
           sodipodi:rx="114.14724"
           sodipodi:ry="114.14724"
           d="m 286.63655,185.0719 a 114.14724,114.14724 0 1 1 0.0398,-0.63039"
           sodipodi:start="0.065767886"
           sodipodi:end="6.3434196"
           sodipodi:open="true"
           transform="translate(19.285714,15.428571)" />
      </g>
      <path
         sodipodi:nodetypes="zzzzz"
         inkscape:connector-curvature="0"
         id="rect3843"
         d="m 135.45824,140.43702 c 17.45628,-18.07135 60.01161,-17.81441 77.2197,0 17.20808,17.81442 17.20808,53.40536 0,71.21978 -17.20809,17.81442 -60.01161,17.81442 -77.2197,0 -17.20808,-17.81442 -17.45628,-53.14842 0,-71.21978 z"
         style="opacity:0.84999999999999998;fill:#21edff;fill-opacity:0.60119933;stroke:none;stroke-opacity:1" />
      <path
         style="opacity:0.84999999999999998;fill:#21edff;fill-opacity:0.60119933;stroke:none;stroke-opacity:1"
         d="m 138.71935,143.60034 c 15.98008,-16.46384 54.93671,-16.22976 70.6896,0 15.75287,16.22977 15.75287,48.65478 0,64.88455 -15.75289,16.22977 -54.93672,16.22977 -70.6896,0 -15.75288,-16.22977 -15.98009,-48.42069 0,-64.88455 z"
         id="path3846"
         inkscape:connector-curvature="0"
         sodipodi:nodetypes="zzzzz" />
      <path
         id="path3850"
         d="M 162.78125 132.28125 C 153.22229 133.91167 144.47425 137.66402 138.71875 143.59375 C 122.73866 160.05761 122.96587 192.27023 138.71875 208.5 C 154.47163 224.72977 193.65336 224.72977 209.40625 208.5 C 212.31227 205.506 214.66616 201.95544 216.5 198.0625 C 207.95006 206.13275 196.05018 210.81893 183.1875 210 C 159.15777 208.47009 140.94858 188.38499 142.53125 165.15625 C 143.48399 151.17287 151.39868 139.23697 162.78125 132.28125 z "
         style="opacity:0.84999999999999998;fill:#21edff;fill-opacity:0.60119933;stroke:none;stroke-opacity:1" />
      <path
         id="path3864"
         d="M 174.15625 131.34375 C 160.45047 131.31449 146.70879 135.36183 138.71875 143.59375 C 122.73866 160.05761 122.96587 192.27023 138.71875 208.5 C 154.47163 224.72977 193.65336 224.72977 209.40625 208.5 C 225.15912 192.27023 225.15912 159.82352 209.40625 143.59375 C 201.52981 135.47887 187.86203 131.37301 174.15625 131.34375 z M 183.15625 135.59375 C 183.72184 135.60263 184.30419 135.64845 184.875 135.6875 C 203.06935 136.93228 216.87888 153.18759 215.78125 172.09375 L 215.75 172.3125 C 214.54696 191.28626 198.76578 205.62467 180.5 204.375 C 162.23422 203.12533 148.42196 186.75501 149.625 167.78125 C 150.79044 149.40042 165.62306 135.31833 183.15625 135.59375 z "
         style="opacity:0.84999999999999998;fill:#21edff;fill-opacity:0.60119933;stroke:none;stroke-opacity:1" />
      <g
         id="g3071"
         transform="matrix(1.9087998,0,0,1,-90.128998,-196.69509)"
         style="fill:#21edff;fill-opacity:0.60119933;stroke:none;stroke-opacity:1">
        <path
           style="opacity:0.84999999999999998;fill:#21edff;fill-opacity:0.60119933;stroke:none;stroke-opacity:1"
           d="m 63.57143,341.05179 c 35.650879,-35.65088 115.60299,-35.65088 151.25387,0 4.71404,4.71405 4.71404,15.28595 0,20 -35.65088,35.65088 -115.602991,35.65088 -151.25387,0 -4.714045,-4.71405 -4.714045,-15.28595 0,-20 z"
           id="path3073"
           inkscape:connector-curvature="0"
           sodipodi:nodetypes="aaaaa" />
        <path
           style="opacity:0.84999999999999998;fill:#21edff;fill-opacity:0.60119933;stroke:none;stroke-opacity:1"
           d="m 63.57143,357.93362 c 35.650879,-35.65088 115.60299,-35.65088 151.25387,0 4.71404,4.71405 4.71404,15.28595 0,20 -35.65088,35.65088 -115.602991,35.65088 -151.25387,0 -4.714045,-4.71405 -4.714045,-15.28595 0,-20 z"
           id="path3075"
           inkscape:connector-curvature="0"
           sodipodi:nodetypes="aaaaa" />
        <path
           style="opacity:0.84999999999999998;fill:#21edff;fill-opacity:0.60119933;stroke:none;stroke-opacity:1"
           d="m 63.57143,374.26352 c 35.650879,-35.65088 115.60299,-35.65088 151.25387,0 4.71404,4.71405 4.71404,15.28595 0,20 -35.65088,35.65088 -115.602991,35.65088 -151.25387,0 -4.714045,-4.71405 -4.714045,-15.28595 0,-20 z"
           id="path3077"
           inkscape:connector-curvature="0"
           sodipodi:nodetypes="aaaaa" />
        <path
           style="opacity:0.84999999999999998;fill:#21edff;fill-opacity:0.60119933;stroke:none;stroke-opacity:1"
           d="m 63.57143,390.50165 c 35.650879,-35.65088 115.60299,-35.65088 151.25387,0 4.71404,4.71405 4.71404,15.28595 0,20 -35.65088,35.65088 -115.602991,35.65088 -151.25387,0 -4.714045,-4.71405 -4.714045,-15.28595 0,-20 z"
           id="path3079"
           inkscape:connector-curvature="0"
           sodipodi:nodetypes="aaaaa" />
      </g>
      <g
         style="fill:#21edff;fill-opacity:0.60119933;stroke:none;stroke-opacity:1"
         id="g3081">
        <path
           sodipodi:open="true"
           sodipodi:end="6.3434196"
           sodipodi:start="0.065767886"
           d="m 286.63655,185.0719 a 114.14724,114.14724 0 1 1 0.0398,-0.63039"
           sodipodi:ry="114.14724"
           sodipodi:rx="114.14724"
           sodipodi:cy="177.57008"
           sodipodi:cx="172.73608"
           id="path3083"
           style="opacity:0.84999999999999998;fill:#21edff;fill-opacity:0.60119933;stroke:none;stroke-opacity:1"
           sodipodi:type="arc" />
        <path
           transform="translate(19.285714,-18.571429)"
           sodipodi:type="arc"
           style="opacity:0.84999999999999998;fill:#21edff;fill-opacity:0.60119933;stroke:none;stroke-opacity:1"
           id="path3085"
           sodipodi:cx="172.73608"
           sodipodi:cy="177.57008"
           sodipodi:rx="114.14724"
           sodipodi:ry="114.14724"
           d="m 286.63655,185.0719 a 114.14724,114.14724 0 1 1 0.0398,-0.63039"
           sodipodi:start="0.065767886"
           sodipodi:end="6.3434196"
           sodipodi:open="true" />
        <path
           transform="translate(19.285714,-18.571429)"
           sodipodi:open="true"
           sodipodi:end="6.3434196"
           sodipodi:start="0.065767886"
           d="m 286.63655,185.0719 a 114.14724,114.14724 0 1 1 0.0398,-0.63039"
           sodipodi:ry="114.14724"
           sodipodi:rx="114.14724"
           sodipodi:cy="177.57008"
           sodipodi:cx="172.73608"
           id="path3087"
           style="opacity:0.84999999999999998;fill:#21edff;fill-opacity:0.60119933;stroke:none;stroke-opacity:1"
           sodipodi:type="arc" />
        <path
           sodipodi:type="arc"
           style="opacity:0.84999999999999998;fill:#21edff;fill-opacity:0.60119933;stroke:none;stroke-opacity:1"
           id="path3089"
           sodipodi:cx="172.73608"
           sodipodi:cy="177.57008"
           sodipodi:rx="114.14724"
           sodipodi:ry="114.14724"
           d="m 286.63655,185.0719 a 114.14724,114.14724 0 1 1 0.0398,-0.63039"
           sodipodi:start="0.065767886"
           sodipodi:end="6.3434196"
           sodipodi:open="true" />
        <path
           sodipodi:type="arc"
           style="opacity:0.84999999999999998;fill:#21edff;fill-opacity:0.60119933;stroke:none;stroke-opacity:1"
           id="path3091"
           sodipodi:cx="172.73608"
           sodipodi:cy="177.57008"
           sodipodi:rx="114.14724"
           sodipodi:ry="114.14724"
           d="m 286.63655,185.0719 a 114.14724,114.14724 0 1 1 0.0398,-0.63039"
           sodipodi:start="0.065767886"
           sodipodi:end="6.3434196"
           sodipodi:open="true"
           transform="translate(19.285714,-18.571429)" />
        <path
           transform="translate(-16.714286,-18.571429)"
           sodipodi:open="true"
           sodipodi:end="6.3434196"
           sodipodi:start="0.065767886"
           d="m 286.63655,185.0719 a 114.14724,114.14724 0 1 1 0.0398,-0.63039"
           sodipodi:ry="114.14724"
           sodipodi:rx="114.14724"
           sodipodi:cy="177.57008"
           sodipodi:cx="172.73608"
           id="path3093"
           style="opacity:0.84999999999999998;fill:#21edff;fill-opacity:0.60119933;stroke:none;stroke-opacity:1"
           sodipodi:type="arc" />
        <path
           sodipodi:type="arc"
           style="opacity:0.84999999999999998;fill:#21edff;fill-opacity:0.60119933;stroke:none;stroke-opacity:1"
           id="path3095"
           sodipodi:cx="172.73608"
           sodipodi:cy="177.57008"
           sodipodi:rx="114.14724"
           sodipodi:ry="114.14724"
           d="m 286.63655,185.0719 a 114.14724,114.14724 0 1 1 0.0398,-0.63039"
           sodipodi:start="0.065767886"
           sodipodi:end="6.3434196"
           sodipodi:open="true"
           transform="translate(-14.714286,15.428571)" />
        <path
           transform="translate(19.285714,15.428571)"
           sodipodi:open="true"
           sodipodi:end="6.3434196"
           sodipodi:start="0.065767886"
           d="m 286.63655,185.0719 a 114.14724,114.14724 0 1 1 0.0398,-0.63039"
           sodipodi:ry="114.14724"
           sodipodi:rx="114.14724"
           sodipodi:cy="177.57008"
           sodipodi:cx="172.73608"
           id="path3097"
           style="opacity:0.84999999999999998;fill:#21edff;fill-opacity:0.60119933;stroke:none;stroke-opacity:1"
           sodipodi:type="arc" />
      </g>
      <path
         style="opacity:0.84999999999999998;fill:#21edff;fill-opacity:0.60119933;stroke:none;stroke-opacity:1"
         d="m 135.45824,140.43702 c 17.45628,-18.07135 60.01161,-17.81441 77.2197,0 17.20808,17.81442 17.20808,53.40536 0,71.21978 -17.20809,17.81442 -60.01161,17.81442 -77.2197,0 -17.20808,-17.81442 -17.45628,-53.14842 0,-71.21978 z"
         id="path3099"
         inkscape:connector-curvature="0"
         sodipodi:nodetypes="zzzzz" />
      <path
         sodipodi:nodetypes="zzzzz"
         inkscape:connector-curvature="0"
         id="path3101"
         d="m 138.71935,143.60034 c 15.98008,-16.46384 54.93671,-16.22976 70.6896,0 15.75287,16.22977 15.75287,48.65478 0,64.88455 -15.75289,16.22977 -54.93672,16.22977 -70.6896,0 -15.75288,-16.22977 -15.98009,-48.42069 0,-64.88455 z"
         style="opacity:0.84999999999999998;fill:#21edff;fill-opacity:0.60119933;stroke:none;stroke-opacity:1" />
      <path
         style="opacity:0.84999999999999998;fill:#21edff;fill-opacity:0.60119933;stroke:none;stroke-opacity:1"
         d="M 162.78125 132.28125 C 153.22229 133.91167 144.47425 137.66402 138.71875 143.59375 C 122.73866 160.05761 122.96587 192.27023 138.71875 208.5 C 154.47163 224.72977 193.65336 224.72977 209.40625 208.5 C 212.31227 205.506 214.66616 201.95544 216.5 198.0625 C 207.95006 206.13275 196.05018 210.81893 183.1875 210 C 159.15777 208.47009 140.94858 188.38499 142.53125 165.15625 C 143.48399 151.17287 151.39868 139.23697 162.78125 132.28125 z "
         id="path3103" />
      <path
         style="opacity:0.84999999999999998;fill:#21edff;fill-opacity:0.60119933;stroke:none;stroke-opacity:1"
         d="M 174.15625 131.34375 C 160.45047 131.31449 146.70879 135.36183 138.71875 143.59375 C 122.73866 160.05761 122.96587 192.27023 138.71875 208.5 C 154.47163 224.72977 193.65336 224.72977 209.40625 208.5 C 225.15912 192.27023 225.15912 159.82352 209.40625 143.59375 C 201.52981 135.47887 187.86203 131.37301 174.15625 131.34375 z M 183.15625 135.59375 C 183.72184 135.60263 184.30419 135.64845 184.875 135.6875 C 203.06935 136.93228 216.87888 153.18759 215.78125 172.09375 L 215.75 172.3125 C 214.54696 191.28626 198.76578 205.62467 180.5 204.375 C 162.23422 203.12533 148.42196 186.75501 149.625 167.78125 C 150.79044 149.40042 165.62306 135.31833 183.15625 135.59375 z "
         id="path3105" />
    </g>
  </g>
</svg>
